<svg xmlns="http://www.w3.org/2000/svg" width="320" height="320" viewBox="0 0 320 320">
  <defs>
    <symbol id="i-house" viewBox="0 0 32 32">
      <path d="M16 5 L28 15 L28 27 L20 27 L20 19 L12 19 L12 27 L4 27 L4 15 Z"></path>
    </symbol>
    <symbol id="i-broom" viewBox="0 0 32 32">
      <rect x="14" y="3" width="3" height="16" rx="1.5" transform="rotate(20 15.5 11)"></rect>
      <path d="M5 22 L22 16 L26 27 L9 30 Z"></path>
    </symbol>
    <symbol id="i-clock" viewBox="0 0 32 32">
      <circle cx="16" cy="18" r="11"></circle>
      <rect x="6" y="3" width="6" height="4" rx="1" transform="rotate(-30 9 5)"></rect>
      <rect x="20" y="3" width="6" height="4" rx="1" transform="rotate(30 23 5)"></rect>
    </symbol>
    <symbol id="i-jar" viewBox="0 0 32 32">
      <rect x="8" y="4" width="16" height="4" rx="1.5"></rect>
      <rect x="6" y="9" width="20" height="20" rx="3"></rect>
    </symbol>
    <symbol id="i-fork" viewBox="0 0 32 32">
      <rect x="11" y="3" width="2.4" height="9" rx="1"></rect>
      <rect x="14.8" y="3" width="2.4" height="9" rx="1"></rect>
      <rect x="18.6" y="3" width="2.4" height="9" rx="1"></rect>
      <rect x="13" y="11" width="6" height="18" rx="2"></rect>
    </symbol>
    <symbol id="i-scissors" viewBox="0 0 32 32">
      <circle cx="9" cy="9" r="4" fill="none" stroke-width="2.5"></circle>
      <circle cx="9" cy="23" r="4" fill="none" stroke-width="2.5"></circle>
      <path d="M12 11 L28 4 L28 28 L12 21 Z"></path>
    </symbol>
    <symbol id="i-hammer" viewBox="0 0 32 32">
      <rect x="6" y="6" width="16" height="8" rx="1.5" transform="rotate(15 14 10)"></rect>
      <rect x="14" y="13" width="4" height="18" rx="1" transform="rotate(15 16 22)"></rect>
    </symbol>
    <symbol id="i-detergent" viewBox="0 0 32 32">
      <rect x="13" y="3" width="6" height="5" rx="1"></rect>
      <rect x="7" y="9" width="18" height="20" rx="2.5"></rect>
    </symbol>
    <symbol id="i-sock" viewBox="0 0 32 32">
      <path d="M9 3 L17 3 L17 18 L25 18 L25 29 L9 29 Z"></path>
    </symbol>
    <symbol id="i-cup" viewBox="0 0 32 32">
      <path d="M5 7 L21 7 L19 28 L7 28 Z"></path>
      <path d="M21 11 Q28 12 27 19 Q26 23 21 22" fill="none" stroke-width="2.5"></path>
    </symbol>
    <symbol id="i-bulb" viewBox="0 0 32 32">
      <circle cx="16" cy="14" r="9"></circle>
      <rect x="11" y="22" width="10" height="5" rx="1"></rect>
      <rect x="13" y="27" width="6" height="2.5" rx="1"></rect>
    </symbol>
    <symbol id="i-spool" viewBox="0 0 32 32">
      <rect x="5" y="6" width="22" height="20" rx="2"></rect>
      <circle cx="11" cy="16" r="2" fill="#FFE500"></circle>
      <circle cx="21" cy="16" r="2" fill="#FFE500"></circle>
    </symbol>

    
    <pattern id="p" x="0" y="0" width="240" height="240" patternUnits="userSpaceOnUse">
      
      <use href="#i-house" x="14" y="14" width="32" height="32" fill="#F5C400"></use>
      <use href="#i-broom" x="74" y="14" width="32" height="32" fill="#F5C400"></use>
      <use href="#i-clock" x="134" y="14" width="32" height="32" fill="#F5C400"></use>
      <use href="#i-jar" x="194" y="14" width="32" height="32" fill="#F5C400"></use>
      
      <use href="#i-fork" x="14" y="74" width="32" height="32" fill="#F5C400"></use>
      <use href="#i-scissors" x="74" y="74" width="32" height="32" fill="#F5C400"></use>
      <use href="#i-hammer" x="134" y="74" width="32" height="32" fill="#F5C400"></use>
      <use href="#i-cup" x="194" y="74" width="32" height="32" fill="#F5C400"></use>
      
      <use href="#i-detergent" x="14" y="134" width="32" height="32" fill="#F5C400"></use>
      <use href="#i-sock" x="74" y="134" width="32" height="32" fill="#F5C400"></use>
      <use href="#i-bulb" x="134" y="134" width="32" height="32" fill="#F5C400"></use>
      <use href="#i-spool" x="194" y="134" width="32" height="32" fill="#F5C400"></use>
      
      <use href="#i-clock" x="14" y="194" width="32" height="32" fill="#F5C400"></use>
      <use href="#i-jar" x="74" y="194" width="32" height="32" fill="#F5C400"></use>
      <use href="#i-house" x="134" y="194" width="32" height="32" fill="#F5C400"></use>
      <use href="#i-broom" x="194" y="194" width="32" height="32" fill="#F5C400"></use>
    </pattern>
  </defs>
  <rect width="320" height="320" fill="#FFE500"></rect>
  <rect width="320" height="320" fill="url(#p)"></rect>
</svg>